<svg width="154" height="49" viewBox="0 0 154 49" fill="none" xmlns="http://www.w3.org/2000/svg">
<g style="mix-blend-mode:luminosity">
<path d="M19.1033 21.8078C18.8808 24.1647 18.0108 26.0058 16.4935 27.3309C14.9762 28.646 12.9581 29.3035 10.4393 29.3035C8.67919 29.3035 7.12645 28.8887 5.78107 28.0592C4.44581 27.2197 3.41402 26.0311 2.68569 24.4935C1.95737 22.9559 1.57804 21.1705 1.54769 19.1373V17.0737C1.54769 14.9899 1.91691 13.1539 2.65535 11.5657C3.39379 9.97759 4.45087 8.75361 5.82659 7.89378C7.21243 7.03395 8.8107 6.60404 10.6214 6.60404C13.0593 6.60404 15.0217 7.26661 16.5087 8.59176C17.9957 9.9169 18.8606 11.7883 19.1033 14.2059H15.2796C15.0975 12.6178 14.6322 11.4747 13.8837 10.7767C13.1452 10.0686 12.0578 9.71459 10.6214 9.71459C8.95232 9.71459 7.66763 10.3266 6.76734 11.5506C5.87717 12.7644 5.42197 14.5499 5.40174 16.9068V18.8642C5.40174 21.2514 5.82659 23.0723 6.6763 24.3266C7.53613 25.5809 8.79047 26.2081 10.4393 26.2081C11.9465 26.2081 13.0795 25.8692 13.8382 25.1915C14.5968 24.5137 15.0773 23.3858 15.2796 21.8078H19.1033ZM50.0747 21.0947H42.1087V18.1207H50.0747V21.0947ZM70.1801 23.5376L73.5789 6.90751H77.3875L72.2892 29H68.6172L64.4142 12.8707L60.1201 29H56.433L51.3347 6.90751H55.1432L58.5724 23.5072L62.7906 6.90751H66.0074L70.1801 23.5376ZM83.6243 29H79.8006V6.90751H83.6243V29ZM105.247 29H101.408L91.5606 13.3259V29H87.7218V6.90751H91.5606L101.439 22.6423V6.90751H105.247V29Z" fill="gray"/>
<path d="M40.1284 20.8144C40.1284 24.9693 36.4593 28.3815 31.8766 28.3815C27.2939 28.3815 23.6248 24.9693 23.6248 20.8144C23.6248 16.6595 27.2939 13.2473 31.8766 13.2473C36.4593 13.2473 40.1284 16.6595 40.1284 20.8144Z" fill="#FCBF02" stroke="white" stroke-width="0.634187"/>
<rect x="30.677" y="16.0837" width="2.39929" height="9.46107" fill="white"/>
<rect x="37.0179" y="19.7104" width="2.20758" height="10.2827" transform="rotate(90 37.0179 19.7104)" fill="white"/>
</g>
</svg>
